<?xml version="1.0" encoding="UTF-8" standalone="no"?>
<!DOCTYPE svg PUBLIC "-//W3C//DTD SVG 20010904//EN" "http://www.w3.org/TR/2001/REC-SVG-20010904/DTD/svg10.dtd">
<svg version="1.0" xmlns="http://www.w3.org/2000/svg" width="1024.000000pt" height="613.000000pt" viewBox="0 0 1024.000000 613.000000" preserveAspectRatio="xMidYMid meet">

<g transform="translate(0.000000,613.000000) scale(0.100000,-0.100000)" fill="#000000" stroke="none">
<path d="M2283 5473 c-7 -15 -13 -39 -13 -53 0 -50 22 -145 43 -188 19 -39 117 -152 131 -152 3 0 20 -12 37 -27 79 -71 254 -98 444 -70 55 9 101 14 102 13 2 -2 -7 -22 -20 -46 -26 -49 -64 -71 -192 -113 -143 -47 -224 -52 -367 -22 -102 21 -142 44 -146 84 -2 17 0 31 5 30 20 -3 23 2 9 16 -8 8 -26 15 -40 15 -15 0 -35 5 -45 12 -28 17 -81 -23 -81 -63 0 -16 5 -29 10 -29 6 0 10 -9 10 -19 0 -27 84 -111 151 -151 105 -63 141 -73 249 -74 112 0 180 14 273 60 59 28 68 29 61 10 -3 -8 -1 -23 5 -33 6 -13 6 -52 0 -119 -23 -228 -30 -357 -39 -689 -14 -480 -28 -667 -60 -810 -6 -27 -14 -65 -17 -83 -3 -18 -9 -35 -14 -38 -5 -3 -9 -18 -9 -34 0 -16 -4 -32 -10 -35 -5 -3 -10 -19 -10 -36 0 -35 -22 -109 -32 -109 -5 0 -8 -9 -8 -20 0 -11 -4 -20 -10 -20 -5 0 -10 -7 -10 -15 0 -8 -4 -23 -9 -33 -5 -9 -15 -38 -23 -64 -7 -27 -16 -48 -20 -48 -4 0 -8 -9 -8 -20 0 -11 -4 -20 -10 -20 -5 0 -10 -9 -10 -19 0 -11 -3 -21 -7 -23 -7 -3 -37 -55 -67 -115 -6 -13 -14 -23 -18 -23 -5 0 -8 -6 -8 -14 0 -17 -42 -100 -52 -104 -5 -2 -8 -12 -8 -23 0 -10 -4 -19 -10 -19 -5 0 -10 -6 -10 -13 0 -7 -9 -23 -20 -35 -11 -12 -20 -25 -20 -30 0 -5 -12 -22 -28 -38 -15 -16 -34 -39 -43 -51 -34 -49 -107 -131 -167 -188 -139 -131 -280 -271 -294 -293 -9 -13 -46 -54 -82 -92 -36 -37 -66 -72 -66 -76 0 -5 -9 -20 -20 -34 -19 -25 -28 -80 -12 -80 5 0 107 99 228 221 348 351 426 413 663 533 197 99 337 139 541 152 107 7 254 -12 362 -48 164 -53 345 -176 444 -299 107 -134 146 -206 192 -349 68 -214 69 -396 1 -638 -71 -252 -229 -493 -460 -701 l-90 -81 115 0 114 0 80 85 c206 217 339 452 408 720 27 103 29 123 28 300 0 180 -2 196 -31 305 -58 220 -143 363 -318 535 -157 155 -309 242 -532 303 -90 24 -113 26 -278 26 l-180 0 -131 -42 c-73 -23 -176 -62 -229 -87 -54 -25 -99 -45 -101 -45 -2 0 24 46 58 103 113 190 221 425 262 572 10 33 29 98 43 143 l26 84 13 -32 c25 -57 91 -125 156 -160 55 -30 73 -34 138 -35 103 0 169 33 271 134 l77 76 26 -42 c62 -97 177 -162 304 -170 122 -9 179 17 309 143 l68 64 19 -27 c40 -58 115 -121 180 -153 59 -29 76 -33 150 -33 74 -1 91 3 147 30 126 63 216 171 238 286 5 24 10 36 14 27 18 -47 95 -385 138 -605 12 -62 78 -388 129 -640 81 -397 94 -505 94 -765 0 -162 -5 -280 -17 -378 -22 -175 -100 -493 -155 -626 l-40 -97 85 3 85 3 19 55 c10 30 25 73 34 95 l15 40 217 1 c266 1 412 25 683 111 95 31 460 211 560 278 62 42 166 143 240 235 102 127 115 149 156 263 l17 47 186 -6 186 -6 47 29 c26 15 111 87 190 159 79 71 186 166 238 210 52 43 176 156 275 249 167 157 300 279 402 365 l41 35 -8 190 c-4 105 -6 451 -3 770 3 319 2 745 -2 948 l-7 367 -26 0 c-14 0 -48 -18 -79 -41 -49 -39 -56 -41 -78 -29 -18 10 -26 24 -30 59 -9 64 -9 65 -39 80 -20 11 -34 12 -63 3 -21 -6 -55 -13 -75 -16 l-38 -5 0 52 c0 59 -20 97 -51 97 -10 0 -19 4 -19 9 0 4 -17 11 -37 15 -21 3 -52 9 -69 12 -45 9 -113 -28 -189 -101 -36 -35 -65 -67 -65 -72 0 -4 -12 -21 -26 -38 -14 -16 -33 -42 -42 -57 -9 -16 -20 -28 -24 -28 -4 0 -8 -6 -8 -14 0 -7 -14 -27 -30 -44 -17 -18 -30 -36 -30 -40 0 -13 -51 -58 -90 -79 -25 -14 -40 -32 -52 -66 -10 -26 -28 -64 -42 -85 -13 -21 -33 -69 -45 -105 -11 -37 -27 -79 -34 -94 -8 -15 -22 -66 -31 -112 -31 -168 -52 -111 -43 123 8 222 49 363 141 480 51 65 54 76 28 99 -27 25 -36 22 -85 -25 -46 -45 -127 -196 -127 -235 0 -13 -4 -23 -10 -23 -5 0 -10 -15 -10 -34 0 -19 -4 -37 -9 -40 -14 -9 -23 -80 -27 -231 -3 -77 -9 -144 -15 -149 -5 -6 -9 -16 -9 -24 0 -32 -79 -58 -95 -32 -3 6 -24 10 -45 10 -21 0 -42 5 -45 10 -3 6 -20 10 -37 10 -31 0 -87 15 -120 31 -10 5 -31 9 -48 9 -34 0 -117 18 -142 31 -10 5 -25 9 -33 9 -8 0 -24 5 -35 10 -11 6 -29 15 -40 20 -11 6 -29 10 -39 10 -11 0 -23 5 -26 10 -3 6 -17 10 -30 10 -13 0 -26 4 -29 9 -6 8 -31 14 -119 27 -20 4 -40 10 -43 15 -3 5 -31 9 -63 9 -31 0 -61 4 -66 9 -19 18 -222 38 -236 24 -5 -5 -12 -32 -16 -60 l-5 -50 78 -8 c44 -4 131 -16 194 -27 63 -11 177 -28 253 -38 77 -10 141 -21 145 -24 9 -10 -220 -6 -283 4 -350 59 -483 66 -519 30 -17 -16 -18 -23 -8 -45 28 -60 -4 -155 -52 -155 -9 0 -16 -4 -16 -10 0 -5 -6 -10 -13 -10 -8 0 -21 -8 -31 -18 -15 -17 -16 -67 -12 -598 2 -318 7 -610 11 -648 7 -70 0 -98 -34 -138 -12 -16 -34 -18 -171 -18 -157 0 -157 0 -184 26 -14 15 -26 38 -26 51 0 13 -4 43 -10 66 -5 23 -19 94 -30 157 -20 108 -41 213 -61 305 -5 22 -14 63 -19 90 -5 28 -15 70 -21 95 -5 25 -14 64 -20 88 -5 23 -13 62 -19 87 -25 110 -44 210 -59 300 -61 364 -82 488 -91 528 -5 27 -10 61 -10 76 0 24 4 27 38 29 56 4 176 40 266 80 72 32 92 36 189 40 129 6 135 10 117 100 -29 151 -75 236 -185 347 -103 104 -150 141 -220 174 -27 13 -58 27 -67 32 -10 5 -29 9 -43 9 -14 0 -35 6 -47 13 -54 31 -65 46 -99 137 -7 19 -21 47 -31 62 -10 14 -18 31 -18 37 0 6 -4 11 -10 11 -5 0 -10 5 -10 12 0 27 -174 228 -197 228 -5 0 -18 8 -29 18 -10 9 -40 28 -66 41 -27 13 -48 27 -48 30 0 3 -15 12 -32 19 -39 16 -67 28 -105 43 -16 6 -36 15 -45 20 -10 5 -33 9 -52 9 -19 0 -37 4 -40 9 -5 8 -147 23 -211 23 -81 -1 -236 -16 -241 -23 -3 -5 -20 -9 -39 -9 -19 0 -37 -4 -40 -10 -3 -5 -14 -10 -25 -10 -20 0 -103 -40 -108 -52 -2 -5 -12 -8 -23 -8 -10 0 -19 -4 -19 -10 0 -5 -11 -10 -24 -10 -14 0 -28 -4 -31 -10 -3 -5 -15 -10 -26 -10 -10 0 -19 -4 -19 -10 0 -5 -11 -10 -24 -10 -14 0 -28 -4 -31 -10 -3 -5 -19 -10 -36 -10 -16 0 -29 -4 -29 -9 0 -31 -467 -30 -486 0 -3 5 -23 9 -44 9 -21 0 -42 5 -45 10 -3 6 -19 10 -35 10 -16 0 -32 5 -35 10 -3 6 -14 10 -24 10 -10 0 -31 6 -47 14 -16 8 -47 22 -69 32 -45 20 -128 74 -133 86 -2 4 -12 8 -23 8 -10 0 -19 5 -19 10 0 6 -21 10 -47 10 -42 0 -50 -3 -60 -27z m1818 -83 c234 -23 478 -149 607 -313 76 -98 142 -211 142 -246 0 -5 -15 -12 -34 -15 -51 -10 -150 -80 -203 -145 -25 -31 -62 -90 -82 -131 -51 -107 -50 -159 6 -271 75 -150 172 -242 272 -258 19 -4 37 -13 41 -21 9 -18 42 -202 71 -395 11 -77 34 -203 50 -280 25 -123 37 -213 22 -177 -10 25 -33 10 -140 -88 -79 -73 -122 -105 -161 -120 -63 -24 -83 -25 -148 -5 -72 21 -137 68 -206 149 -34 39 -68 75 -76 80 -11 6 -28 -6 -66 -47 -60 -65 -147 -137 -196 -163 -48 -26 -171 -25 -220 1 -61 32 -90 58 -147 133 -31 39 -63 72 -73 72 -9 0 -31 -18 -49 -40 -35 -44 -153 -132 -216 -161 -47 -22 -139 -25 -173 -5 -13 7 -62 54 -109 105 l-85 94 6 56 c3 31 11 83 17 116 6 33 11 71 11 85 0 29 16 63 26 56 4 -2 8 4 8 15 0 19 -1 19 -13 3 -12 -16 -13 -14 -13 17 0 25 3 30 10 19 6 -9 10 -10 10 -3 0 6 -5 15 -10 18 -15 9 -12 276 3 294 10 12 9 13 -2 7 -11 -7 -12 26 -6 200 4 115 7 216 7 224 -2 62 24 228 53 338 39 150 87 261 168 383 85 129 132 176 259 260 170 111 292 149 528 167 8 1 58 -3 111 -8z m-1669 -39 c154 -93 246 -129 422 -161 138 -26 150 -30 139 -41 -12 -12 -141 -28 -231 -29 -65 0 -81 4 -156 41 -126 61 -246 166 -246 215 0 19 0 19 72 -25z m2653 -687 c131 -44 260 -157 321 -279 20 -40 33 -78 30 -84 -12 -19 -52 -12 -75 13 -12 13 -68 46 -124 75 -127 64 -173 71 -417 64 l-183 -6 29 52 c34 64 97 137 139 162 40 25 212 27 280 3z m3139 -113 c9 -30 16 -63 16 -74 0 -11 -30 -48 -69 -86 -100 -96 -374 -428 -461 -558 -41 -62 -76 -106 -78 -98 -17 78 182 442 367 670 85 105 193 217 202 208 4 -4 14 -32 23 -62z m264 -174 c7 -15 16 -43 19 -61 5 -31 0 -39 -42 -80 -26 -26 -135 -117 -242 -202 -107 -86 -225 -184 -261 -219 -113 -105 -274 -245 -283 -245 -16 0 -9 26 14 58 51 72 262 324 348 417 116 126 300 299 359 337 53 34 70 33 88 -5z m-3478 -87 c178 -11 271 -27 249 -41 -8 -5 -61 -27 -119 -50 -93 -37 -114 -41 -190 -42 -100 -1 -133 13 -220 92 l-55 50 85 1 c47 0 159 -5 250 -10z m3659 -172 c-1 -79 -2 -88 -11 -58 -5 19 -8 47 -6 62 6 41 -18 43 -65 6 -39 -29 -38 -27 13 25 30 31 58 57 62 57 4 0 8 -42 7 -92z m-265 -154 c-103 -94 -157 -138 -153 -127 5 16 170 162 183 162 5 1 -8 -15 -30 -35z m265 -101 c0 -76 -2 -133 -4 -128 -8 23 -11 265 -3 265 4 0 8 -62 7 -137z m-508 -109 c-18 -20 -30 -43 -27 -52 2 -9 10 -44 16 -77 11 -55 40 -165 89 -335 11 -36 22 -81 25 -100 6 -35 86 -312 92 -319 4 -4 175 139 257 215 51 48 57 51 58 31 1 -12 2 -218 3 -457 l1 -436 -50 -37 c-27 -20 -75 -61 -106 -90 -229 -214 -341 -316 -427 -389 -54 -45 -159 -138 -233 -204 l-134 -121 -3 731 c-1 402 -7 848 -12 991 l-9 260 107 102 c59 56 112 102 119 103 6 0 14 -6 17 -12 3 -7 4 -4 1 7 -4 15 6 31 32 57 42 40 202 168 210 168 3 0 -9 -16 -26 -36z m506 -306 c-1 -51 -3 -10 -3 92 0 102 2 143 3 93 2 -51 2 -135 0 -185z m-2447 162 c74 -6 248 -15 385 -20 354 -13 717 -58 785 -96 22 -13 -12 -14 -265 -9 -159 4 -384 10 -500 16 -115 5 -269 9 -341 9 -72 0 -186 3 -252 7 l-122 6 0 31 c0 17 3 42 7 55 6 23 8 23 87 17 45 -4 142 -11 216 -16z m235 -256 c154 -3 358 -9 454 -15 95 -5 213 -9 262 -9 49 0 89 -3 89 -7 0 -5 69 -8 152 -8 l153 0 5 -585 c3 -322 9 -591 14 -599 5 -8 3 -70 -4 -150 -9 -101 -10 -210 -3 -426 5 -159 9 -291 8 -292 0 -1 -74 1 -164 5 -90 4 -165 3 -168 -2 -7 -10 -263 -1 -663 25 -412 27 -614 38 -680 39 l-55 0 -3 1022 -2 1021 162 -6 c90 -4 289 -9 443 -13z m-963 -1352 c-6 -5 -19 -17 -28 -28 -15 -19 -16 -19 -9 1 5 15 3 17 -6 8 -12 -12 -5 -33 11 -33 5 0 19 11 32 24 19 20 36 24 104 29 45 3 86 2 92 -2 8 -5 12 -119 11 -396 0 -215 0 -395 1 -401 0 -6 14 -14 31 -18 51 -10 489 -35 809 -46 162 -5 348 -13 414 -16 l118 -7 -5 -34 c-4 -22 -30 -64 -71 -116 -36 -45 -84 -106 -106 -135 -62 -80 -188 -166 -402 -275 -168 -85 -211 -102 -328 -132 -134 -33 -220 -48 -355 -60 -38 -3 -117 -13 -174 -21 -86 -13 -106 -13 -112 -2 -7 10 -9 9 -9 -3 0 -12 -11 -18 -40 -21 -35 -3 -39 -1 -35 17 2 11 11 52 19 90 55 257 82 548 72 760 -6 140 -22 260 -63 478 -19 103 -23 141 -14 150 17 17 13 31 -4 17 -12 -10 -15 -10 -15 4 0 9 5 16 12 16 6 0 4 6 -7 14 -12 8 -16 20 -12 35 3 11 2 21 -2 21 -3 0 -11 20 -17 45 l-10 45 55 0 c32 0 51 -4 43 -8z"/>
<path d="M3823 4831 c-62 -29 -139 -105 -159 -157 -26 -68 -16 -184 22 -254 65 -122 216 -176 338 -121 95 42 165 130 181 228 16 102 -56 252 -141 294 -67 32 -183 37 -241 10z m218 -130 c21 -21 29 -39 29 -64 0 -44 -33 -87 -66 -87 -37 0 -84 51 -84 90 0 35 46 90 75 90 9 0 30 -13 46 -29z"/>
<path d="M2985 3860 c-3 -5 -1 -10 4 -10 6 0 11 5 11 10 0 6 -2 10 -4 10 -3 0 -8 -4 -11 -10z"/>
<path d="M3015 3779 c-4 -6 -5 -12 -2 -15 2 -3 7 2 10 11 7 17 1 20 -8 4z"/>
<path d="M5420 1953 c0 -13 5 -23 10 -23 13 0 13 11 0 30 -8 12 -10 11 -10 -7z"/>
<path d="M5476 1935 c4 -8 8 -15 10 -15 2 0 4 7 4 15 0 8 -4 15 -10 15 -5 0 -7 -7 -4 -15z"/>
<path d="M5454 1932 c3 -5 0 -13 -6 -15 -9 -4 -10 -6 -1 -6 17 -1 25 16 12 25 -7 4 -9 3 -5 -4z"/>
<path d="M5469 1882 c-3 -20 -2 -29 4 -23 5 5 7 19 5 32 -3 20 -5 19 -9 -9z"/>
<path d="M5480 1840 c-9 -6 -10 -10 -3 -10 6 0 15 5 18 10 8 12 4 12 -15 0z"/>
<path d="M5450 1806 c0 -2 7 -7 16 -10 8 -3 12 -2 9 4 -6 10 -25 14 -25 6z"/>
<path d="M5520 1419 c0 -5 5 -7 10 -4 6 3 10 8 10 11 0 2 -4 4 -10 4 -5 0 -10 -5 -10 -11z"/>
<path d="M3255 1201 c-25 -5 -31 -13 -39 -49 -18 -84 -123 -171 -207 -172 -97 0 -197 75 -220 167 l-11 43 -64 0 c-61 0 -64 -1 -70 -27 -9 -46 -21 -69 -55 -107 -53 -61 -107 -79 -186 -65 -59 11 -102 51 -133 122 -12 29 -26 59 -30 67 -11 22 -78 22 -91 -1 -58 -110 45 -293 189 -335 116 -34 258 5 338 93 l43 47 42 -48 c123 -140 349 -137 481 6 l47 51 46 -51 c29 -32 70 -63 111 -83 117 -58 261 -39 363 46 62 53 93 171 55 209 -29 30 -60 15 -100 -49 -55 -86 -164 -113 -272 -66 -63 28 -119 98 -130 163 -7 41 -9 43 -42 45 -19 0 -48 -2 -65 -6z"/>
<path d="M5025 1050 c-11 -5 -35 -9 -53 -9 -70 -2 -92 -41 -71 -125 19 -78 93 -121 135 -79 28 28 64 115 64 155 0 27 -6 41 -22 52 -25 18 -25 18 -53 6z"/>
<path d="M4619 1033 c-34 -9 -40 -120 -9 -170 29 -48 54 -58 93 -36 49 29 77 78 77 134 0 38 -5 51 -22 63 -21 15 -99 20 -139 9z"/>
<path d="M3150 658 c-18 -13 -43 -41 -55 -63 -49 -87 -178 -130 -262 -86 -43 21 -67 50 -96 114 -15 33 -20 37 -54 37 -68 0 -81 -8 -98 -60 -18 -55 -45 -83 -99 -100 -82 -26 -157 13 -201 106 l-27 56 -51 -6 c-29 -3 -53 -6 -54 -6 -1 0 -18 -21 -38 -47 -20 -26 -48 -55 -63 -65 -30 -20 -93 -23 -161 -7 -34 8 -46 7 -54 -3 -6 -9 -7 -6 -4 10 6 24 -8 29 -33 11 -13 -9 -12 -10 3 -5 15 5 17 2 12 -17 -8 -24 -8 -24 -6 -48 2 -24 52 -79 91 -99 45 -23 114 -19 163 10 19 12 58 43 86 71 l50 50 26 -50 c29 -58 73 -95 134 -111 75 -20 197 14 267 74 l40 34 38 -40 c49 -51 95 -70 176 -72 111 -2 265 70 289 135 5 16 14 10 51 -37 24 -31 65 -68 90 -82 39 -24 56 -27 130 -27 128 1 211 44 251 130 19 40 24 99 13 129 -11 29 -51 19 -80 -20 -37 -48 -119 -94 -167 -94 -42 0 -101 22 -131 48 -10 9 -38 47 -62 85 -49 74 -62 80 -114 45z"/>
</g>
</svg>